<svg xmlns="http://www.w3.org/2000/svg" viewBox="0 0 99.7 25.8"><path d="M37.9 14.7s-.5 0-1.2.1c-.8.1-2 .2-3.7.4v-1.4-1.4c0-1.2 0-2.4.1-3.6s.1-2.3.2-3.3.1-1.8.2-2.5.1-1.1.2-1.4c.1-.1.2-.3.3-.5.1-.2.2-.3.2-.5s-.1-.4-.2-.5c-.2 0-.4-.1-.6-.1-.3 0-.5.1-.7.4-.1.3-.2.5-.3.8-.2.4-.4.8-.8 1.4s-.7 1.2-1.2 1.9c-.4.7-.9 1.4-1.4 2.2S28 8.2 27.5 9c-.5.8-1 1.6-1.6 2.3-.5.8-1 1.5-1.5 2.2-.3.4-.6.9-1.1 1.4-.3.6-.8 1.1-1.3 1.7-1.1.1-2.2.2-3.2.3-1 .1-2 .1-2.9.1-1.6 0-3-.1-4.2-.3s-2.2-.4-3.1-.7c-.8-.3-1.5-.7-1.9-1.2S6 13.7 6 13.1c0-.4.1-.7.2-1 .2-.3.3-.6.5-.8l.6-.6c.2-.1.3-.2.3-.2.1-.1.2-.1.2-.2s.1-.2.1-.3c0-.2-.1-.3-.2-.5-.2-.2-.3-.2-.5-.2s-.4.1-.7.3c-.3.3-.5.6-.8.9-.3.4-.5.8-.7 1.2s-.3.9-.3 1.3c0 1 .3 1.8.9 2.5.6.7 1.4 1.2 2.5 1.6 1 .4 2.2.7 3.6.8 1.4.2 2.8.3 4.3.3.8 0 1.5 0 2.3-.1s1.6-.1 2.4-.2c-.8.8-1.7 1.6-2.7 2.4-1 .8-2.1 1.5-3.2 2.1s-2.4 1.1-3.6 1.5c-1.3.4-2.6.6-4 .6-1 0-1.9-.1-2.7-.3s-1.4-.4-1.8-.6-.9-.5-1.1-.7c-.2-.2-.4-.3-.4-.3-.1-.1-.3-.2-.5-.2s-.3.1-.4.2c-.2.1-.3.3-.3.4s.1.3.2.4c0 0 .2.2.5.4s.7.5 1.3.8 1.3.5 2.1.8c.9.2 1.9.3 3.1.3 2.7 0 5.3-.7 7.9-2 2.6-1.3 5.2-3.3 7.5-5.9 1-.1 1.9-.2 2.9-.4 1.3-.2 2.5-.3 3.6-.5 1-.1 2-.3 2.8-.4 0 .9.1 1.8.2 2.7s.2 1.7.3 2.5.3 1.4.4 2.1c.2.6.3 1.1.6 1.5.1.1.1.2.2.3s.2.1.3.1c.2 0 .3-.1.5-.2s.2-.3.2-.4c0-.1 0-.2-.1-.3-.2-.4-.4-.8-.5-1.4-.1-.6-.3-1.2-.4-2s-.2-1.5-.3-2.4c-.1-.8-.1-1.7-.2-2.6.7-.1 1.3-.2 1.8-.2s1-.1 1.4-.2.7-.1 1-.1c.3 0 .5-.1.7-.1.2 0 .3-.1.4-.2s.2-.3.2-.4c0-.2-.1-.3-.2-.5s-.3 0-.5 0zm-6-6.7c-.1 1.4-.1 2.9-.1 4.5v2.9c-.9.1-1.8.2-2.9.4-1.1.1-2.3.3-3.6.5-.3 0-.5.1-.7.1-.2 0-.5.1-.7.1.3-.3.6-.7.8-1.1.3-.4.6-.7.8-1.1.5-.8 1.1-1.6 1.7-2.4.6-.9 1.2-1.7 1.8-2.6s1.1-1.8 1.7-2.6c.5-.9 1-1.6 1.5-2.3-.2.9-.3 2.1-.3 3.6zM72.4 13.3c.4 0 .8-.1 1.1-.4.3-.3.4-.7.4-1.1 0-.2 0-.4-.1-.6s-.2-.3-.3-.5-.3-.2-.5-.3c-.2-.1-.4-.1-.6-.1s-.4 0-.6.1c-.2.1-.3.2-.5.3s-.3.3-.3.5c-.1.2-.1.4-.1.6 0 .4.1.8.4 1.1.3.3.6.4 1.1.4zm-.4-1.9c.1-.1.2-.2.4-.2s.3.1.4.2.2.3.2.4-.1.3-.2.4-.3.2-.4.2-.3-.1-.4-.2-.2-.2-.2-.4 0-.3.2-.4z"/><path d="M99.5 19.6c-.1-.1-.3-.2-.5-.2-.1 0-.2 0-.3.1-.1.1-.2.2-.2.3-.2.5-.5 1-.8 1.6s-.6 1-1 1.4-.8.8-1.2 1c-.4.3-.9.4-1.5.4-.5 0-1-.1-1.4-.3s-.7-.5-.9-.8c.4-.2.8-.5 1.2-.8.4-.3.7-.6 1-1 .3-.3.5-.7.6-1.1s.2-.8.2-1.3c0-.4-.1-.7-.2-1-.1-.3-.3-.5-.5-.7-.2-.2-.4-.3-.7-.5s-.5-.2-.8-.2c-.4 0-.8.1-1.2.3-.4.2-.7.5-.9.8-.3.4-.5.8-.6 1.3 0 .2-.1.3-.1.5l-.2.2s0 .1-.1.2-.1.2-.2.3-.2.2-.4.3c-.2.1-.3.1-.6.1-.4 0-.7-.1-1-.3-.3-.2-.6-.4-.8-.7-.2-.3-.4-.6-.6-1s-.3-.7-.4-1c-.1-.3-.2-.5-.2-.7 0-.2-.1-.3-.1-.3 0-.2-.1-.3-.2-.4-.1-.1-.2-.1-.4-.1s-.3.1-.5.2c-.1.1-.2.3-.2.5v.6c0 .5-.1 1.1-.2 1.6s-.2 1-.4 1.5-.4.9-.6 1.3c-.2.4-.4.7-.6 1s-.4.5-.6.7c-.2.2-.3.3-.4.3-.1 0-.3-.1-.5-.3-.2-.2-.4-.5-.6-.9-.2-.4-.4-.9-.5-1.4-.1-.6-.2-1.2-.2-1.8 0-.6 0-1 .1-1.3.1-.3.1-.4.2-.5 0-.1.1-.2.1-.3 0-.2-.1-.3-.2-.4-.1-.1-.3-.2-.5-.2-.1 0-.2 0-.3.1s-.2.1-.2.2-.1.3-.2.7c-.1.4-.2.9-.2 1.7v.3c-.3.7-.7 1.3-1.1 1.9-.4.6-.7 1-1.1 1.4-.4.4-.7.7-1 .9-.3.2-.7.3-1 .3-.2 0-.4 0-.6-.1-.2-.1-.4-.2-.6-.4-.2-.2-.3-.5-.5-.8-.1-.4-.2-.8-.2-1.4V20c0-.5.1-1 .1-1.5s.1-.9.1-1.2v-.6c0-.2-.1-.3-.2-.4-.1-.1-.3-.2-.4-.2-.2 0-.3.1-.5.2s-.2.3-.2.4c-.1 1-.2 1.9-.2 2.9l-.1.1c-.1.2-.2.4-.4.7-.1.3-.3.6-.5.9l-.6.9c-.2.3-.5.6-.7.8s-.5.5-.8.6c-.3.2-.5.2-.8.2-.2 0-.4-.1-.6-.2-.1-.1-.3-.3-.3-.5-.1-.2-.1-.4-.2-.7v-.8c0-.5 0-.9.1-1.3s.1-.8.1-1c0-.3 0-.6-.1-.9-.1-.3-.2-.5-.3-.7-.1-.2-.3-.4-.5-.5s-.5-.2-.8-.2-.6.1-.9.3c-.3.2-.7.5-1 .8-.3.4-.6.8-.9 1.3-.3.5-.6.9-.9 1.4s-.5.9-.8 1.4c-.2.4-.4.9-.6 1.2v-.8-.6-.8-.8-.7c.6-1.1 1.2-2.2 1.7-3.3.5-1.1 1-2.3 1.4-3.5.4-1.2.7-2.4 1-3.7 0-.2.1-.5.1-.8.1-.1.1-.2.1-.3V8c.6-.8.7-1.7.7-2.6 0-.6 0-1.3-.1-1.8s-.3-1.2-.5-1.6c-.2-.4-.5-.8-.8-1-.3-.3-.7-.4-1.2-.4s-1 .3-1.4.8c-.4.5-.7 1.2-.9 2.2s-.4 2.1-.5 3.4c0 .2 0 .5-.1.7h-4c0-.4-.1-.8-.2-1.1l-.3-.9c-.1-.3-.3-.4-.5-.6s-.4-.2-.7-.2c-.3 0-.6.1-.8.2s-.5.3-.7.6-.3.5-.4.8c-.2.3-.3.7-.4 1.1h-6.3c-.2 0-.3.1-.5.2-.1.1-.2.2-.2.4s.1.3.2.4c.1.1.3.2.5.2h6c-.1.6-.2 1.1-.3 1.7-.1.6-.1 1.2-.2 1.7 0 .6-.1 1.1-.1 1.6v1.3c0 1.5.1 2.8.3 4.1 0 .3.1.5.2.8-.2.3-.4.7-.6 1.1-.3.5-.6 1-1 1.4-.4.4-.7.8-1.2 1.1-.3.3-.7.4-1.2.4-.2 0-.3 0-.5-.1s-.4-.2-.5-.3-.3-.4-.4-.6c-.1-.3-.2-.6-.2-1 0-.3 0-.6.1-.9s.1-.6.1-.9c0-.3.1-.6.1-.9 0-.3.1-.5.1-.8 0-.6-.2-1.1-.5-1.4-.3-.3-.8-.4-1.5-.4h-1.1c0-.2 0-.5-.1-.8 0-.3-.1-.6-.2-.9-.1-.3-.2-.5-.4-.7-.2-.2-.4-.3-.6-.3-.2 0-.4.1-.7.3-.2.2-.4.5-.6.8-.2.3-.3.6-.4 1-.1.3-.2.6-.2.8 0 .3.1.5.2.6.1.1.3.3.4.3.2.1.4.1.6.1h.6c-.1.5-.2.9-.3 1.1-.1.2-.1.4-.2.5 0 .1-.1.2-.1.2v.2c0 .2.1.3.2.4s.3.2.4.2c.3 0 .5-.1.6-.4 0 0 0-.1.1-.2 0-.1.1-.3.2-.5s.1-.4.2-.7c.1-.3.1-.5.2-.8h1.1c.3 0 .5.1.6.2.1.1.1.3.1.5 0 .5-.1 1-.2 1.6-.1.6-.2 1.1-.2 1.7 0 .5.1 1 .2 1.4.2.4.4.8.6 1.1s.6.5.9.7c.4.2.7.2 1.1.2.6 0 1.2-.2 1.8-.5.5-.3 1-.8 1.5-1.3.4-.5.8-1 1.2-1.6.1-.1.1-.2.2-.3.1.3.2.5.3.8.4.9 1 1.6 1.6 2.1s1.3.8 2.1.8c.4 0 .8-.1 1.2-.3.4-.2.8-.5 1.1-.8.3-.3.6-.7.9-1.1.2-.2.3-.4.4-.7V24c0 .4.1.7.3 1 .2.3.4.4.8.4.2 0 .4-.1.6-.2.2-.2.5-.5.7-.9.1-.2.3-.6.5-.9s.4-.8.6-1.2.5-.8.7-1.2c.3-.4.5-.8.8-1.1s.5-.6.7-.8c.2-.2.4-.3.6-.3.1 0 .2.1.3.2s.1.4.1.7v.5c0 .2 0 .4-.1.6 0 .2 0 .4-.1.7v.6c0 .4 0 .8.1 1.2.1.4.2.8.4 1.1.2.3.4.6.7.8s.7.3 1.2.3c.4 0 .9-.1 1.3-.3s.8-.5 1.1-.8c.4-.3.7-.7 1-1.1.2-.2.3-.4.4-.7 0 .3.1.6.2.9.1.5.3.9.6 1.3s.6.6 1 .9c.4.2.8.3 1.3.3.4 0 .8-.1 1.2-.3.4-.2.7-.4 1.1-.7l1-1c.3-.4.6-.8.8-1.2.1-.2.2-.4.4-.6.2.7.5 1.3.8 1.8.3.5.7.9 1 1.2.4.3.7.4 1 .4.3 0 .6-.2.9-.5.4-.3.7-.7 1.1-1.2s.7-1.1 1-1.8c.3-.7.6-1.4.7-2.2.2.3.3.6.6.8.2.3.5.5.7.7.3.2.6.4.9.5s.7.2 1.1.2c.3 0 .6-.1.9-.2.2-.1.3-.2.4-.3 0 .3.1.6.2.9.2.6.4 1.1.8 1.5s.8.8 1.3 1.1c.5.3 1.2.4 1.9.4 1.1 0 2.2-.5 3.1-1.3.9-.9 1.7-2.1 2.5-3.8 0 0 0-.1.1-.1v-.1c.2-.3.1-.5 0-.6zm-59.7-2.8c0-.1.1-.2.1-.3 0-.1.1-.3.2-.4s.1-.2.2-.3l.1-.1s.1 0 .1.1.1.2.1.3v.7h-.8zm21.1-2.4c-.4 1-.8 2-1.3 3v-1.9-2.3c0-.8 0-1.7.1-2.6 0-.6.1-1.2.1-1.8h2.7c-.2.9-.3 1.8-.6 2.6-.3 1-.6 2-1 3zM60 5.6c.1-.7.2-1.4.3-2s.3-1 .5-1.3c.2-.3.4-.5.7-.5.3 0 .6.2.7.5.2.3.3.7.4 1.1.1.4.1.8.2 1.2s0 .7 0 .9c0 .8-.1 1.5-.1 2.3h-2.8c0-.9 0-1.6.1-2.2zm-7.6.8c.2-.2.3-.3.4-.3.1 0 .3.1.4.4.1.3.2.6.2 1.1h-1.6c.2-.6.4-.9.6-1.2zm-1.3 5c.1-1 .2-1.9.4-2.6h2c0 .7-.1 1.5-.2 2.3-.1.8-.3 1.7-.5 2.6-.2.9-.4 1.7-.7 2.6s-.6 1.6-.9 2.4c-.1-.4-.2-.9-.2-1.5v-2.1c0-1.5 0-2.7.1-3.7zm7.1 8.4c-.1.3-.3.7-.5 1.1-.3.5-.5.9-.9 1.4-.3.5-.7.8-1.1 1.2s-.7.5-1.1.5c-.3 0-.6-.1-.9-.3-.3-.2-.6-.4-.8-.8-.3-.3-.5-.7-.7-1.2-.2-.4-.4-.9-.5-1.4.2-.2.4-.6.6-1 .2-.5.4-1 .7-1.6.2-.6.5-1.3.7-2 .2-.7.4-1.5.6-2.2.2-.8.3-1.5.4-2.3.1-.8.2-1.5.2-2.2v-.2h3.8c0 .8-.1 1.7-.1 2.6 0 1.6-.1 3.4-.1 5.3v2.9c-.2.1-.3.1-.3.2zm33 2.2c-.1-.2-.1-.4-.1-.6 0-.2-.1-.4-.1-.6 0-.3 0-.7.1-1l.3-.9c.1-.3.3-.5.5-.7.2-.2.5-.3.8-.3.2 0 .4.1.6.3.2.2.3.4.3.8 0 .3-.1.6-.2.9s-.3.6-.5.8c-.2.3-.4.5-.7.7-.3.3-.6.5-1 .6z"/></svg>