<svg xmlns="http://www.w3.org/2000/svg" viewBox="0 0 99.7 102.8"><path d="M80.9 11.2l-1.7-1.3-77.1 39V29.6l-2 4.7L0 68.4 2.1 73V53l78.3 39 1.6-1.4L2.4 50.9l78.5-39.7zM4.6 77.9l1.9 2.9V60.4L75 95.6l1.9-1.3L4.6 57.1v20.8zm4.9 6.8l1.9 2.2V68.5l58.1 29.8 2.3-1L9.5 65.2v19.5zm4.6 4.8l2 1.6V76.3l47.1 24.3 2.8-.8-51.9-26.7v16.4zm5.6 4.3l2 1.3v-9.7l33.2 17.1 3.3-.6-38.5-19.7v11.6zm5.1 3.1l1.9 1v-4.7l18.4 9.5 4.6.1L24.8 90v6.9zm61.5-80.6L85 14.9 11.3 51l74.5 35.9 1.3-1.5-71.5-34.5 70.7-34.6zm3.8 4.7L89 19.5 24.7 51l65 31.4 1.2-1.8L29 50.9 90.1 21zm3.3 4.9l-1-1.6L38.2 51 93 77.4l1-1.6-51.8-25 51.2-24.9zm2.6 5.4l-.8-1.9L51.9 51l43.8 21.2.8-1.8-40.6-19.5L96 31.3zm2.3 6.2l-.6-1.8L66.8 51l31.1 15.1.6-1.9-27.7-13.3 27.5-13.4zM85.8 50.8l13.6-6.9-.3-1.8-17.5 8.7 17.8 8.6.2-2-13.8-6.6zM74 6.6L6.8 41.2V21.7l-2 2.9v19.8L75.9 7.8 74 6.6zm-5.6-2.7L11.7 33.2V15.6l-2.1 2.1v18.6l61-31.5-2.2-.9zm-6.6-2.3L16.4 25.1V11.3l-2.2 1.8v15.3l50.3-26-2.7-.8zM53.2 0L21.8 16.2V7.6l-1.9 1.1v10.7L56.5.5 53.2 0zM41.5.3L27.9 7.4V4.3l-2 .9v5.3L46.6 0l-5.1.3z"/></svg>