<?xml version="1.0" encoding="utf-8"?>
<!-- Generator: Adobe Illustrator 21.0.0, SVG Export Plug-In . SVG Version: 6.00 Build 0)  -->
<svg version="1.1" id="Layer_1" xmlns="http://www.w3.org/2000/svg" xmlns:xlink="http://www.w3.org/1999/xlink" x="0px" y="0px"
	 viewBox="0 0 99.7 102.8" style="enable-background:new 0 0 99.7 102.8;" xml:space="preserve">
<g>
	<g>
		<path d="M80.9,11.2l-1.7-1.3l-77.1,39V29.6l-2,4.7L0,68.4L2.1,73V53l78.3,39l1.6-1.4L2.4,50.9L80.9,11.2z M4.6,77.9l1.9,2.9V60.4
			l68.5,35.2l1.9-1.3L4.6,57.1V77.9z M9.5,84.7l1.9,2.2V68.5l58.1,29.8l2.3-1L9.5,65.2V84.7z M14.1,89.5l2,1.6V76.3l47.1,24.3
			l2.8-0.8L14.1,73.1V89.5z M19.7,93.8l2,1.3v-9.7l33.2,17.1l3.3-0.6L19.7,82.2V93.8z M24.8,96.9l1.9,1v-4.7l18.4,9.5l4.6,0.1
			L24.8,90V96.9z M86.3,16.3L85,14.9L11.3,51l74.5,35.9l1.3-1.5L15.6,50.9L86.3,16.3z M90.1,21L89,19.5L24.7,51l65,31.4l1.2-1.8
			L29,50.9L90.1,21z M93.4,25.9l-1-1.6L38.2,51L93,77.4l1-1.6l-51.8-25L93.4,25.9z M96,31.3l-0.8-1.9L51.9,51l43.8,21.2l0.8-1.8
			L55.9,50.9L96,31.3z M98.3,37.5l-0.6-1.8L66.8,51l31.1,15.1l0.6-1.9L70.8,50.9L98.3,37.5z M85.8,50.8l13.6-6.9l-0.3-1.8l-17.5,8.7
			l17.8,8.6l0.2-2L85.8,50.8z M74,6.6L6.8,41.2V21.7l-2,2.9v19.8L75.9,7.8L74,6.6z M68.4,3.9L11.7,33.2V15.6l-2.1,2.1v18.6l61-31.5
			L68.4,3.9z M61.8,1.6L16.4,25.1V11.3l-2.2,1.8v15.3l50.3-26L61.8,1.6z M53.2,0L21.8,16.2V7.6l-1.9,1.1v10.7L56.5,0.5L53.2,0z
			 M41.5,0.3L27.9,7.4V4.3l-2,0.9v5.3L46.6,0L41.5,0.3z"/>
	</g>
</g>
</svg>
