<svg xmlns="http://www.w3.org/2000/svg" viewBox="0 0 100 20"><path d="M72.9 2.1l-2.2-1-.2.2 1.8 2.6zM72.1 4.2l-1.8-2.6-.1.8L72.1 5zM71.8 5.1L70 2.9v.9L71.7 6zM71.4 6.4L69.7 4h-.2v.5L71.2 7zM70.7 7.3l-1.6-2.5-.6-.1 1.6 2.6zM70 7.4l-1.9-2.5h-.5l1.7 2.5zM68.7 7.3l-1.6-2.4-.6-.1 1.6 2.5zM67.5 7.5L66.1 5l-.6.2L67 7.5zM66.5 7.4l-1-1.5c-.6.4.1 1.2.1 1.2.5.6.9.3.9.3zM9.8 10.3C9 9.7 8.2 9.1 7.3 8.5 6.4 8 5.6 7.5 5 6.9c-.3-.3-.6-.7-.8-1-.2-.4-.3-.8-.3-1.2 0-1.4.4-2.5 1.2-3.1C6 .9 6.9.6 8 .8c.7.1 1.2.4 1.6.9.4.4.6.9.7 1.5v.9c-.1.3-.2.5-.3.8-.2.2-.4.4-.7.6-.2.2-.5.3-.9.4 0 .6.4 1 1 1.3.6.3 1.2.2 1.7-.2.3-.5.5-.9.6-1.4.1-.5.2-1 .1-1.5-.1-.9-.4-1.8-1.1-2.5C10.1.8 9.2.4 8.1.2 7.9 0 7.5 0 7.2 0h-.5c-.5 0-1 .1-1.5.3-.8.3-1.6.9-2.2 1.6-.6.7-.9 1.6-1 2.7 0 1.2.2 2.1.8 2.9.6.8 1.3 1.5 2.1 2.1.4.3.9.6 1.3.9.4.3.9.6 1.3.9.6.5 1.1 1 1.5 1.5.4.5.6 1.1.6 1.8 0 .5-.1 1-.3 1.5-.1.4-.3.8-.6 1.2-.5.7-1.1 1.1-1.8 1.4-.7.3-1.5.4-2.3.2-.3 0-.6-.1-.9-.2-.3-.1-.5-.3-.7-.6-.2-.2-.4-.4-.5-.7-.2-.3-.3-.5-.5-.8-.3-.8-.4-1.6-.2-2.3.2-.7.6-.9 1.2-.7.2-.6.2-1.2 0-1.8-.2-.6-.7-.9-1.3-.7-1.1.6-1.7 1.5-1.8 2.6v.6c0 .9.2 1.8.7 2.7.4.7.9 1.3 1.5 1.8s1.3.8 2.1 1c.5.1 1 .1 1.6.1.6 0 1.2-.1 1.8-.2 1.1-.2 2.1-.7 2.8-1.4.4-.4.7-.9 1-1.5.3-.6.4-1.2.4-2v-.3c0-.9-.2-1.6-.6-2.3-.2-.8-.7-1.4-1.4-2zM54.6 5.5c.1.1.3.2.5.2s.4-.1.7-.1c.6-.1 1-.4 1.1-.8v-.4c0-.2-.1-.5-.2-.7-.2-.4-.4-.6-.6-.7h-.4c-.2 0-.4 0-.6.1-.5.1-.7.4-.8.8v.3c0 .3.1.5.2.6.1.2.2.5.1.7z"/><path d="M99.6 12c-.1 0-.3 0-.4.1-.1.5-.4.9-.9 1.4-.4.4-.9.8-1.4 1.1v-.3c-.1-.7-.4-1.3-.8-1.9-.5-.6-1-1.2-1.5-1.7-.3-.3-.6-.5-.9-.7-.3-.2-.6-.4-.9-.5.1-.6.1-1.1 0-1.6s-.4-.7-.9-.8h-.1c-.1 0-.3 0-.4.1-.1.1-.3.2-.4.3-.2.2-.3.4-.3.8v.4c.1.5.5 1.1 1.1 1.6 0 .2-.1.5-.2.9-.1.3-.1.6-.2.9 0 .2-.1.6-.3 1.2-.1.6-.3 1.2-.6 1.8-.1.3-.3.6-.4.9-.2.3-.3.5-.5.7-.1.1-.3.2-.4.3-.1.1-.3.1-.5 0-.3 0-.5-.4-.5-1.1-.1-.7-.1-1.5 0-2.3.1-.7.1-1.3.2-1.9.1-.6.2-1 .4-1.2 0-.3-.2-.6-.7-.8-.4-.2-.9-.3-1.2-.1-.1 0-.2.1-.3.2-.1.1-.2.2-.2.4-.1 1.8-.4 3.3-.9 4.5-.4 1.2-1 1.8-1.8 1.7-.4 0-.6-.4-.7-1.2 0-.8 0-1.6.1-2.6l.1-1.6c.1-.5.1-1 .1-1.5-.2-.3-.4-.5-.8-.7-.2-.1-.5-.2-.7-.2-.1 0-.3 0-.4.1-.1 0-.3.1-.4.2 0 .1-.1.3-.2.5.2.2.2.7.2 1.6 0 .4 0 .9.1 1.4-.1.2-.1.5-.3.8-.1.4-.4.8-.6 1.2-.2.2-.3.3-.5.4-.2.1-.4.1-.6.1-.2 0-.4-.1-.6-.3.1-.4.3-.8.4-1.2.1-.5.2-.9.2-1.3.1-1-.1-1.9-.4-2.6-.4-.7-1-1-1.9-.8-.3.1-.5.2-.7.4-.2.2-.3.4-.4.6-.1.4-.2.8-.1 1.4.1.5.2 1 .4 1.6.2.6.5 1.1.9 1.6-.1.6-.3 1.2-.5 1.8-.3.6-.6.9-.9.9-.5 0-.9-.3-1.2-1-.3-.7-.4-1.4-.5-2.3 0-.7 0-1.4.1-2 .1-.7.3-1.2.6-1.6.1-.2.3-.4.5-.5.2-.1.4-.2.7-.2.1-.2.2-.4.2-.6 0-.2-.2-.3-.4-.4h-.1c-.5 0-.9.1-1.3.3-.4.2-.8.5-1.1.9-.5.5-.9 1.2-1.1 2-.2.6-.2 1.2-.2 1.8v.6c0 .1.1.2.1.3-.2.7-.5 1.2-.8 1.8-.3.5-.6.8-1 .7-.5-.1-.8-.6-.8-1.4 0-.9 0-1.8.2-2.9.1-.6.2-1.1.2-1.7.1-.6.2-1.1.2-1.6-.1-.3-.3-.4-.6-.4h-.5c-.6.1-1 .4-1.1.7.2.3.2.8 0 1.5-.1.7-.3 1.5-.3 2.4v.5c0 .1 0 .1-.1.2-.3.7-.7 1.4-1.2 1.8-.3.3-.6.5-.9.6-.3.2-.7.2-1.1.2-.8-.1-1.4-.5-1.8-1.4-.4-.9-.7-1.8-.8-2.8-.1-.8 0-1.5.2-2.1.2-.6.6-1 1.1-1h.4c.1.1.2.1.3.2.2.3.3.6.2 1.1-.1.5-.3.9-.7 1-.1.4.1.6.7.4.6-.1 1-.5 1.3-1 .1-.2.2-.4.2-.6v-.7c-.1-.4-.3-.7-.5-.9-.2-.2-.5-.4-.8-.5-.2-.1-.5-.1-.7-.1-.3 0-.7.1-1 .2-.7.2-1.3.6-1.8 1.2-.3.3-.5.6-.7 1-.2.4-.3.8-.4 1.2 0 .3-.1.5-.1.8 0 .2.1.3.1.5l-.3.9c-.2.7-.5 1.2-.8 1.8-.3.5-.6.8-1 .7-.5-.1-.8-.6-.8-1.4 0-.9 0-1.8.2-2.9.1-.6.2-1.1.2-1.7.1-.6.2-1.1.2-1.6-.1-.3-.3-.4-.6-.4h-.5c-.6.1-1 .4-1.1.7.2.3.2.8 0 1.5-.1.7-.3 1.5-.3 2.4 0 .3-.1.7-.1 1v.1c-.2.6-.5 1.2-.8 1.7-.3.5-.6.8-1 .7-.3-.1-.5-.4-.6-1.1-.1-.7-.1-1.5-.1-2.4 0-.5 0-1.1.1-1.7 0-.6.1-1.2.2-1.8.1-1.1.2-2.2.3-3.2.1-1 .2-1.9.2-2.5 0-.3-.1-.5-.2-.7-.1-.2-.2-.3-.4-.5-.3-.2-.6-.4-1-.4h-.2c-.5.1-.8.3-.9.6.2.2.3.7.2 1.4 0 .7-.1 1.6-.2 2.5 0 .5-.1 1-.2 1.6-.1.6-.1 1.1-.2 1.7v3c0 .2-.1.3-.1.5-.2.7-.4 1.3-.7 1.9-.2.4-.4.7-.6.9-.2.3-.5.4-.8.3-.2 0-.4-.2-.6-.4-.1-.2-.3-.4-.3-.7-.1-.4-.2-.9-.1-1.3 0-.5.1-.8.3-1.1 0-.3-.3-.6-.8-.9-.5-.3-.9-.3-1.1 0 0 .3-.1.6-.2.9l-.3.9c-.2.5-.5.9-.8 1.3-.3.3-.6.5-.9.3-.5-.2-.8-.7-.8-1.6 0-.9.2-1.8.5-2.6.3-.7.6-1.3 1-1.8 0-.6.4-.8.8-.7.2 0 .3.1.4.2.1.1.2.2.2.3.1.3.1.6-.1.9-.2.3-.4.6-.5.6.1.2.3.3.7.5.3.2.7.2 1 .1.2-.1.3-.2.4-.4.1-.2.2-.4.2-.8.1-.5-.2-1-.7-1.5-.4-.4-.9-.5-1.7-.5-.3 0-.6 0-1 .1-.6.1-1.1.4-1.6.8s-.9 1-1.3 1.6c-.5.9-.8 1.9-.8 3v.2c0 .1.1.2.1.4-.2.5-.4 1-.7 1.5-.3.6-.7.8-1 .7-.3 0-.5-.2-.7-.3-.2-.2-.3-.4-.5-.6-.3-.4-.5-.9-.8-1.4-.2-.5-.5-.9-.9-1.1.5-.2.9-.5 1.3-.9s.6-.9.7-1.4c.1-.3.1-.5.1-.8 0-.3-.1-.5-.2-.7-.1-.2-.2-.4-.4-.5l-.6-.3h-.7l-.6.3c-.2.1-.4.3-.6.5-.2.2-.3.4-.5.7-.3.4-.5.8-.7 1.2-.2.4-.3.6-.3.7v-.4c0-.2.1-.5.1-.7.1-.5.1-1.2.2-2s.1-1.5.2-2.3c.3-.7.3-1.4.3-2.1 0-.7.1-1.1 0-1.4 0-.1-.1-.3-.2-.3-.1-.1-.2-.1-.4-.2h-.3c-.3 0-.7.1-1 .4-.4.3-.7.6-.7.9.1.2.2.8.3 1.8.1 1 .1 2.2.1 3.5v3.4c0 .5 0 1-.1 1.4-.3.6-.6 1.2-1.1 1.6-.3.3-.6.5-.9.6-.3.2-.7.2-1.1.2-.8-.1-1.4-.5-1.8-1.4-.4-.9-.7-1.8-.8-2.8-.1-.8 0-1.5.2-2.1.2-.6.6-1 1.1-1h.4c.1.1.2.1.3.2.2.3.3.6.2 1.1-.1.5-.3.9-.7 1-.1.4.1.6.7.4.6-.1 1-.5 1.3-1 .1-.2.2-.4.2-.6v-.7c-.3-.1-.5-.4-.7-.7-.2-.2-.5-.4-.8-.5-.2-.1-.5-.1-.7-.1-.3 0-.7.1-1 .2-.7.2-1.3.6-1.8 1.2-.3.3-.5.6-.7 1-.2.4-.3.8-.4 1.2 0 .3-.1.5-.1.8v.4c-.1.4-.4.8-.6 1.2-.2.2-.3.3-.5.4-.2.1-.4.1-.6.1-.2 0-.4-.1-.6-.3.1-.4.3-.8.4-1.2.1-.5.2-.9.2-1.3.1-1-.1-1.9-.4-2.6-.4-.7-1-1-1.9-.8-.3.1-.5.2-.7.4-.2.2-.3.4-.4.6-.1.4-.2.8-.1 1.4.1.5.2 1 .4 1.6.2.6.5 1.1.9 1.6-.1.6-.3 1.2-.5 1.8-.3.6-.6.9-.9.9-.5 0-.9-.3-1.2-1-.3-.7-.4-1.4-.5-2.3 0-.7 0-1.4.1-2 .1-.7.3-1.2.6-1.6.1-.2.3-.4.5-.5.2-.1.4-.2.7-.2.1-.2.2-.4.2-.6 0-.2-.2-.3-.4-.4h-.1c-.5 0-.9.1-1.3.3-.4.2-.8.5-1.1.9-.5.5-.9 1.2-1.1 2-.2.6-.2 1.2-.2 1.8v.6c0 .4.1.8.3 1.2.1.4.3.7.6 1.1.3.4.7.8 1.3 1 .5.3 1.1.4 1.8.4h.1c.7 0 1.2-.3 1.8-.8.3-.4.6-.8.9-1.3.3.1.5.2.7.2.4 0 .7 0 1-.2.3-.1.5-.3.8-.6.2-.2.3-.4.5-.6.3.8.7 1.5 1.3 2.1.3.3.7.6 1.2.8.5.2 1 .3 1.6.4h.3c.5 0 .9-.1 1.3-.2.5-.2.9-.5 1.2-.8.2-.2.4-.5.6-.7 0 .6-.1 1.1-.1 1.3 0 .4.3.6.7.6h.2c.6-.1 1-.3 1.1-.6 0-.5.1-1.1.1-1.6s0-1.1.1-1.7c0-.2.1-.5.2-.8.1-.3.3-.7.5-1.1.3-.6.6-1.1 1-1.5.4-.4.6-.6.9-.6.2.1.3.3.2.7-.1.4-.2.8-.4 1.2-.2.4-.4.7-.6 1-.3.3-.5.5-.8.5 0 .1-.1.2-.1.3v.2c.3 0 .7.4 1 1.1.4.7.8 1.3 1.2 1.9.2.3.4.5.6.6.2.2.5.3.7.3.4 0 .7 0 1-.1.3-.1.6-.4.8-.6.2-.2.4-.5.6-.8.1-.1.1-.3.2-.4.2.3.3.6.6.9.2.2.4.3.7.4.2.1.5.1.7 0 .5-.1 1-.4 1.5-.9s.7-.9.8-1.2c0 .2.1.5.3.9.2.4.4.8.8 1.2.2.2.4.4.7.5.3.1.6.2.9.2h.1c.2 0 .5-.1.7-.2.3-.1.5-.3.7-.5.2-.2.4-.5.6-.8.2-.3.4-.6.5-1 .1-.2.1-.3.2-.5 0 .1.1.3.1.4.2.6.5 1.2.9 1.6s.9.7 1.6.7h.2c.2 0 .4 0 .6-.1.2-.1.5-.3.6-.5.3-.3.5-.7.8-1.1.2.4.4.8.8 1.1.4.3.9.5 1.7.6h.2c.2 0 .4 0 .6-.1.2-.1.5-.3.7-.5.2-.2.4-.5.6-.8.2-.3.3-.6.5-1 .1-.2.1-.3.2-.5.3.6.6 1.2 1.2 1.7.3.3.7.6 1.2.8.5.2 1 .3 1.6.4h.3c.5 0 .9-.1 1.3-.2.5-.2.9-.5 1.2-.8.4-.4.7-.8 1-1.3 0 .1 0 .3.1.4.2.5.4.9.8 1.2.4.3.9.5 1.7.6h.2c.2 0 .4 0 .6-.1.2-.1.5-.3.7-.5.2-.2.4-.5.6-.8.1-.3.3-.5.4-.8.1.2.2.5.4.7.3.4.7.8 1.3 1 .5.3 1.1.4 1.8.4h.1c.7 0 1.2-.3 1.8-.8.3-.4.6-.8.9-1.3.3.1.5.2.7.2.4 0 .7 0 1-.2.3-.1.5-.3.8-.6.3-.3.5-.5.6-.8 0 .3.1.7.1 1 .1.5.2.9.4 1.2.2.3.4.6.7.8.3.2.6.3 1 .3.3 0 .6-.1.9-.2.3-.1.5-.3.7-.6.4-.4.7-.8.9-1.3.2-.5.3-.8.4-.9 0 .2.1.6.2 1.1.1.5.3.9.6 1.3.1.2.3.4.6.6.2.2.5.3.8.3h.3c.2 0 .4 0 .6-.1.3-.1.5-.3.8-.5.2-.2.5-.5.6-.8.2-.3.4-.7.5-1 .3-.7.5-1.3.6-1.9.1-.4.2-.7.2-.9.1-.4.2-.7.2-1 0-.3.1-.5.1-.7.2.2.5.5.8 1 .3.5.6 1.1.8 1.7.1.3.2.7.2 1 0 .3.1.7 0 1v.2l-.6.3c-.3.2-.5.3-.7.5-.4.4-.5.8-.5 1.2 0 .4.2.7.7.9.3.1.6.2.9.2.2 0 .5 0 .8-.1.7-.1 1.2-.5 1.6-1.2.2-.4.4-.8.4-1.3 0-.2.1-.4.1-.7.6-.4 1.2-.8 1.8-1.3.3-.3.6-.6.8-1 .2-.4.4-.7.4-1.1-.8.1-1 .1-1.1.1zm-80.7.7c-.1-.2-.2-.4-.2-.6-.2-.5-.4-1-.4-1.4-.1-.4 0-.7.2-.7.3-.1.5.3.6 1.1-.2.6-.2 1.1-.2 1.6zm58.2 0c-.1-.2-.2-.4-.2-.6-.2-.5-.4-1-.4-1.4-.1-.4 0-.7.2-.7.3-.1.5.3.6 1.1-.2.6-.2 1.1-.2 1.6zm17 4.5c-.1.6-.3.8-.6.7-.2-.1-.2-.3 0-.7.1-.3.4-.5.8-.7-.1.3-.2.5-.2.7z"/></svg>