<?xml version="1.0" encoding="utf-8"?><svg xmlns="http://www.w3.org/2000/svg" xmlns:xlink="http://www.w3.org/1999/xlink"><symbol viewBox="0 0 132.4 118.5" id="logo" xmlns="http://www.w3.org/2000/svg"><path d="M132.4 0H89.8v1.8h12.4l-35 93.8L31.7 1.8h17.8V0H0v1.8h14.4l35.7 94.4c.4-.3.9-.6 1.3-.9 1.7-.8 3.7-.8 6 0 1 .4 1.9.9 2.4 1.5a4.72 4.72 0 0 1 1.5 3.6c0 .6-.1 1.1-.3 1.6-.3.8-.6 1.4-1.1 1.9-.4.5-.8 1-1.3 1.4-.4.5-.9 1-1.3 1.5s-.9 1.3-1.2 2.3c-.2.6-.4 1.2-.4 1.8l1 2.8 1 2.7c.3.1.5.2.8.3.1.1.3.1.4.2 3.2 1.2 6.1 1.7 8.8 1.5 2.6-.2 5-1 7.1-2.4 2.1-1.4 3.9-3.2 5.4-5.5 1.5-2.3 2.9-4.9 3.9-7.7l37.1-101h11.2V0zM70.3 108c-1.4 3.8-3 6.2-4.9 7.2-1.1.6-2.1.9-3.3.9L105 1.8h5.4L70.3 108z"/></symbol><symbol viewBox="0 0 329.6 480" id="playingcard" xmlns="http://www.w3.org/2000/svg"><path class="bst0" fill="none" stroke="#FFF" stroke-miterlimit="10" d="M.2 24.2s16.6 6.4 26.2-7.8c0 0 9.2 8.3 19.2-1.9 2.3-2.3 3.8-9.2.5-14"/><path fill="#fff" stroke="#FFF" stroke-miterlimit="10" class="bst1" d="M25.6 17.6h-9.2m6.5 2.9h-9.6m4.8 3.2H9.9m33.2-6.6h-9.2m12-3H35.8M47.3 11H37.1m10.8-3.1H37.4m10.4-3.2H37.4"/><path fill="none" stroke="#FFF" stroke-miterlimit="10" class="bst0" d="M99.9 30.2C94 52.7 79.5 52.5 70.4 48.8c-5.4-2.2-8-6.1-8-6.1-16.9 27.5-36.9 6-36.9 6C15.1 63.6.7 62.4.7 62.4"/><path class="bst0" fill="none" stroke="#FFF" stroke-miterlimit="10" d="M68.9.1s2 16.8 25.3 14c0 0 .8 9.5 5.8 16.1 5.1 6.7 14.5 10.6 29.3 2 0 0 12.6 8.3 25.3-2.7 0 0 6 16.7 22.5 3.5 0 0 14.6 24.1 41.9 15.1 0 0 15.8 20.5 34.5 3 0 0 17.4 8.9 28.4-4.9 0 0 20.6 2.9 25.6-17.1 0 0 16.1-1 21.8-21.7"/><path fill="none" stroke="#FFF" stroke-miterlimit="10" class="bst0" d="M174.4.1s.2 12.6 18.7 7.6c0 0 13.3 16.1 31.9-.1 0 0 7.2 3.8 13.5-1 0 0 13.7 20.5 33.3 4.8 0 0 19 5.3 18.7-11.4M45.4 56.4l57.4 66.2 125-67.1"/><path fill="none" stroke="#FFF" stroke-miterlimit="10" class="bst0" d="M222.1 51.5l-115 62.1L53.4 53h-9.3"/><path fill="none" stroke="#FFF" stroke-miterlimit="10" class="bst0" d="M215.5 49l-104.9 55.1L60 46.3H48"/><path fill="none" stroke="#FFF" stroke-miterlimit="10" class="bst0" d="M201.3 49.6l-85.9 46L74 50"/><path fill="none" stroke="#FFF" stroke-miterlimit="10" class="bst0" d="M85.7 49.6l33.9 37.2 74.6-39.3-6.3-3.4-64 33.7-31.5-32.7"/><path fill="none" stroke="#FFF" stroke-miterlimit="10" class="bst0" d="M97.8 36.5l30.3 32.6 55-28.9"/><path fill="none" stroke="#FFF" stroke-miterlimit="10" class="bst0" d="M109.7 36.7l22.9 23.4L179 35.8h10.6"/><path fill="none" stroke="#FFF" stroke-miterlimit="10" class="bst0" d="M121.2 35.8l15.4 15.7 25.8-13.9"/><path fill="none" stroke="#FFF" stroke-miterlimit="10" class="bst0" d="M157 33.8l-16.5 9.1-8.6-9.4m45.6 49s25.3 13.7 44.6-12.6c0 0 6.7 4.3 13.9 1.5 0 0 22.2 27.1 38.1-4.8M.7 95.6s11.4 5 19.6-13.1c0 0 16.6 22.3 33.1 5.7 0 0 11.8 14.1 21.7 2.4"/><path fill="none" stroke="#FFF" stroke-miterlimit="10" class="bst0" d="M329.1 70.3s-8.2 1.7-13.8-4.2c0 0-9.7 12.1-29-2.4 0 0-16.5 12.2-21.6-9.7m-89-49.8h8.4m-6.9 1.9h10m31.1 6.2h-9.6m13.8-2.6h-9m53.8 4.8h-10.9m14.4-2.2h-10.2M287 9.7h-9.9m12.7-4.1h-10.1m49.4 0h-9.2m8.8 3.1h-8.8m7.5 3.6h-7.5m6 3.3h-7.8m5.8 3.1h-9.8m7.4 2.9h-11.2m7.8 3.1h-9.2m4.6 2.6h-7.3m.6 3.7h-8.4m7 3.4h-9.2m7.4 3h-10.5m8.1 2.8h-10.6m6.3 3.2h-9m-7.3 4.1h-11.3m7.8 3h-10.7m-14.2 1h-7.8m6 2h-8.3m4.1 2.5h-7.6m-48.1-10.5h9.4m-13.5-2.6h8.3m-12.5-3.6h11.1m-16.4-6.4h10.9m-28.7 2.9h5.8m-8.9-3.4h6.5m-8.1-3h6.9m-7.8.8h-9.1m5.2 2.6h-7.8m-16.6 1.5h-8.4m-16-3.1h9.9m-12.1-3h8m-10.2-4.6h9.3m-10.4-3.4h9.3m-10.2-4.4h9m-26.8-4.6h9.1M73 8.3h11.7M71 5.6h11.1m12.7 12.6H82.6m13.2 3.7H83.2m14.1 3.7H85.7m13.8 4H87.3m11.6 3.9H88.7m8.6 4.3h-11m8.5 4.2h-11m7.3 4.3H78.9m-17.1-2.7h-12m6.7 6.8H45.9m-21-.8h-9.3m6.5 3.3H9.9m9.4 2.6h-13m8.5 3.1H4.9m14.9 24.8H9.7m8.5 3.2H9.1m7 3.1H6m7.6 2.9H4.1m49.1-4.2H41.3m8.4 3H38.9m34.8.8h-7.6m7.2-3.1H67m154.6-18.5h-9m7 2.5h-11.5m9 2.7h-11.8m8.8 2.6h-11.8m8.9 2.2H199m6.8 2.9h-11.6m71.7-5.6h-10.6m13.5-3h-10.9m4.1 5.7h-5.7m14.6-8.6h-9.8m11.7-3.1h-9.4m8.1-3.3h-6.9m4.2-2.4h7.5m-9.1-2.4h7.7m-8.9-2.4h7.3m-8.3-3.2h7.8m13.5 8.4h11.1m-7.9 2.2H300m-6 2.5h10m11.3-2.3h8m-4.8 2.6h6.8m3.8 388.9s-16.6-6.4-26.2 7.8c0 0-9.2-8.3-19.2 1.9-2.3 2.3-3.3 9-1.3 12.6"/><path fill="none" stroke="#FFF" stroke-miterlimit="10" class="bst1" d="M303.7 464.1h9.1m-6.4-3h9.5m-4.7-3.1h8.1m-33.1 6.6h9.1m-11.9 3h10m-11.5 3.1h10.3m-10.8 3h10.4m-10.3 3.2h10.3"/><path fill="none" stroke="#FFF" stroke-miterlimit="10" class="bst0" d="M229.3 451.5c5.9-22.5 20.5-22.3 29.5-18.6 5.4 2.2 8 6.1 8 6.1 16.9-27.5 36.9-6 36.9-6 10.5-14.9 24.9-13.8 24.9-13.8"/><path fill="none" stroke="#FFF" stroke-miterlimit="10" class="bst0" d="M259.9 479.8s-1.6-15-24.8-12.2c0 0-.8-9.5-5.8-16.1-5.1-6.7-14.5-10.6-29.3-2 0 0-12.6-8.3-25.3 2.8 0 0-6-16.8-22.5-3.5 0 0-14.6-24.1-41.9-15.1 0 0-15.8-20.5-34.5-3 0 0-17.4-8.9-28.4 4.9 0 0-20.6-2.9-25.6 17.1 0 0-15.4.7-21.3 20.2"/><path fill="none" stroke="#FFF" stroke-miterlimit="10" class="bst0" d="M154.5 479.8s.1-10.8-18.4-5.8c0 0-13.3-16.1-31.9.1 0 0-7.2-3.8-13.5 1 0 0-13.7-20.5-33.3-4.8 0 0-17.9-4.9-18.7 9.5m245.1-54.6l-57.3-66.1-125 67"/><path fill="none" stroke="#FFF" stroke-miterlimit="10" class="bst0" d="M107.2 430.2l115-62.1 53.7 60.6h9.3"/><path fill="none" stroke="#FFF" stroke-miterlimit="10" class="bst0" d="M113.7 432.7l105-55.1 50.6 57.7h11.9"/><path fill="none" stroke="#FFF" stroke-miterlimit="10" class="bst0" d="M128 432.1l85.8-46 41.4 45.6"/><path fill="none" stroke="#FFF" stroke-miterlimit="10" class="bst0" d="M243.6 432.1l-33.9-37.2-74.6 39.3 6.2 3.4 64-33.7 31.6 32.7"/><path fill="none" stroke="#FFF" stroke-miterlimit="10" class="bst0" d="M231.5 445.1l-30.3-32.5-55.1 28.8"/><path fill="none" stroke="#FFF" stroke-miterlimit="10" class="bst0" d="M219.6 445l-22.9-23.4-46.5 24.2h-10.5"/><path fill="none" stroke="#FFF" stroke-miterlimit="10" class="bst0" d="M208 445.8l-15.3-15.6-25.9 13.9"/><path fill="none" stroke="#FFF" stroke-miterlimit="10" class="bst0" d="M172.3 447.9l16.5-9.2 8.5 9.4m-45.5-49s-25.3-13.7-44.6 12.6c0 0-6.7-4.3-13.9-1.5 0 0-22.2-27.1-38.1 4.8m273.4-28.9s-11.4-5-19.6 13.1c0 0-16.6-22.3-33.1-5.7 0 0-11.8-14.1-21.7-2.4"/><path fill="none" stroke="#FFF" stroke-miterlimit="10" class="bst0" d="M.7 411.4s7.7-1.7 13.3 4.2c0 0 9.7-12.1 29 2.4 0 0 16.5-12.2 21.6 9.7m89.4 49.8h-8.8m7.6-2h-10.7m-31.1-6.1h9.6m-13.9 2.6h9.1M62 467.1h10.8m-14.3 2.3h10.2M42.2 472h10m-12.8 4.1h10.2m-48.9 0h8.6m-8.6-3.2h8.8m-7.7-3.5h7.5m-5.9-3.3h7.8M5.3 463h9.4m-7.1-2.9H19m-8-3.1h9.3m-4.7-2.7h7.5m-.6-3.6h8.3m-6.9-3.4h9.2m-7.5-3h10.6m-8.1-2.8h10.6m-6.3-3.2h8.9m7.4-4.1H60m-7.8-3h10.6m14.3-1h7.7m-6-2h8.4m-4.2-2.6h7.7m48 10.6h-9.4m13.6 2.5h-8.3m12.5 3.6H136m16.3 6.4h-10.8m28.2-2.9h-5.9m9.5 3.4h-6.5m8 3H168m7.7-.7h9.1m-5.1-2.6h7.7m16.7-1.5h8.4m16 3h-9.9m12.1 3.1h-8m10.2 4.6h-9.3m10.3 3.3h-9.2m10.2 4.5h-9.1m27.7 4.5h-9.9m13.3 2.9h-12.3m14.1 2.8h-11.5m-12.8-12.6h12.3m-13.2-3.7h12.6M232 456h11.6m-13.9-4H242m-11.6-3.9h10.2m-8.6-4.2h11m-8.6-4.3h11.1m-7.3-4.3h12.2m17.1 2.7h12m-6.7-6.7h10.6m21 .8h9.3m-6.5-3.4h12.1m-9.4-2.6h13.6m-9.1-3.1h9.9m-14.9-24.8h10.2m-8.5-3.1h9.1m-7-3.1h10.1m-7.3-3h9.1m-49.2 4.4h11.9m-8.2-3.1h10.7m-34.8-.8h7.7m-7.7 3.1h6.8m-154.6 18.5h9m-7-2.5h11.5m-9-2.7h11.7m-8.7-2.7H127m-8.9-2.1h12.2m-6.8-3h11.6m-71.7 5.7H74m-13.5 2.9h10.8m-4-5.6H73m-14.7 8.5h9.9m-11.8 3.1h9.5m-8.2 3.4h7m-4.2 2.4H53m9.1 2.3h-7.8m9 2.5h-7.4m8.4 3.1h-7.9M43 418.1H31.8m8-2.3H29.3m6-2.5h-10M14 415.6H6m4.8-2.5H4"/><circle fill="none" stroke="#FFF" stroke-miterlimit="10" class="bst0" cx="164.9" cy="240.9" r="21.5"/><path fill="none" stroke="#FFF" stroke-miterlimit="10" class="bst0" d="M164.1 214.5v-79.2m0-4.5V89.7m3 124.8l2.3-21.9m.3-3.8l3-29.9m.4-2.3l5.6-53.8m.4-4.9l1.6-14M170 215l16.8-79m1.2-6.3l9.5-43.9m-25 129.9l22.6-68.4m1.3-4.4l10.7-32.9m1-3.3l9.8-31.8m-43 141.6l9.7-20.6m1.5-3.3l28.5-63.7m1.4-3.3l23-51m-61.5 143.2L216 152m1.6-3.1l27.7-47.2m2.7-4.8l8.8-14.8m-77.1 137l54.6-73.2m1.6-3l32.2-44m2-2.9l21.7-28.8M182 220.9l40.2-43.9m2.8-3.1l68.7-76m4.2-4.7l21.6-24.1M183.8 222.5l23.2-20m3-2.6l61.8-54.9m3.5-3.3l6.5-5.8m4-3.7l43.3-38.4M185.9 225l31.9-22.9m1.6-1.4l29.3-20.8m6.1-4.3l52.2-37.7m2.7-2l19.4-13.8M187.6 227.5l52.5-30.4m4-2l35.8-20.1m6.9-4l42.3-24.6m-140.2 83.5l78.9-34.8m4.3-2l57-24.7m-139.2 64.1l23.3-7.5m6.2-1.8l70.1-22.9m4.6-1.4l35-11.1M190.6 235l67.1-14.1m4.3-1.1l67.1-13.7m-137.8 31.3l39.3-3.5m6.1-.9l77.1-7.8m6.5-.8l8.8-.8m-137.8 17.3H242m4 0h49.7m4.1 0h29.3m-137.8 2.9l40.4 4.3m5 .8l59 6m5.7.7l27.7 2.6m-138.4-11.9l25.1 5.6m2.4.7l53.7 11.2m3.1.9l54.1 11.2M190 249.1l51.7 16.9m5.3 1.7l82.1 26.7m-140-43l24.8 11.5m6.1 2.7l38.7 17.1m5.1 2.6l28.9 12.5m3.4 1.6l33 14.8m-141.4-60.1l84.2 48.8m4.1 2.2l37 21.6m3.4 1.7l12.7 7.5m-142.9-79.5l8.5 6.5m3.7 2.7l48.6 35.1m3.1 2.2l79 57M184.5 258.6l25.3 22.8m2.8 2.6l38.3 34.7m3 2.5l8.4 7.6m3.7 3.3l37.9 33.6m3 2.4l18.7 17.3M182.4 260.6l14.4 15.4m2.3 3l54.8 60.8m5.9 6.3l27 29.7m3 3.3l10.5 11.9m-120-128.7l27.6 37.6m1.9 3l31 42m3.2 5l31.9 43.5M178 263.8l37.9 65m2 4.1l21.4 40.9m-63.9-108.7l8.1 17.6m1.5 3.6l17.3 38.6m.8 2.3l16.1 35.8m-46.6-96.9l10.2 30.2m1 3.2l18.8 58.4m1.3 3.5l2.8 8.3m-36.8-102.9l1.8 6.7m.9 4l13.2 62.3m.7 4l7.4 32.8m-26.3-109.5l3.7 35.8m.4 4.3l7.9 77m-14.7-116.9v79.1m0 4.6v41.1m-2.2-124.8l-2.4 21.9m-.2 3.8l-3.1 30m-.3 2.2l-5.6 53.8m-.4 4.9l-1.7 14m10.8-131.1l-16.8 79m-1.2 6.3l-9.4 43.7m24.8-129.6l-22.5 68.3m-1.4 4.4l-10.6 32.9m-1 3.3l-9.5 30.8m42.6-140.6l-9.6 20.6m-1.5 3.3L115.2 353m-1.4 3.3l-23.2 51.1m61.6-143.3l-38.4 65.7m-1.6 3.2l-27.7 47.1m-2.7 4.9l-8.6 14.5M150 262.7l-54.5 73.2m-1.7 3L61.7 383m-2 2.8l-21.8 28.9M147.8 261l-40.2 43.8m-2.8 3.2L36 383.9m-4.1 4.7l-21.7 24.2M146 259.3l-23.2 20m-3 2.6L58 336.8m-3.5 3.3l-6.6 5.8m-4 3.7L.7 388.1m143.1-131.3l-31.8 23m-1.7 1.3L81 301.9m-6 4.3l-52.2 37.7m-2.8 2L.7 359.7m141.4-105.4l-52.4 30.4m-4 2l-35.8 20.1m-6.9 4L.7 335.5m140.2-83.6l-79 34.8m-4.2 2l-57 24.7m139.2-64.1l-23.3 7.5m-6.3 1.8l-70 23m-4.6 1.3l-35 11.2m138.5-47.3L72.1 261m-4.3 1.1L.7 275.7m137.8-31.3L99.2 248m-6.1.8L16 256.6m-6.6.8l-8.7.8m137.8-17.3H87.8m-4 0H34.1m-4.1 0H.7m137.8-2.9L98 233.7m-4.9-.8l-59-6m-5.8-.6L.7 223.6m138.4 11.9l-25.1-5.6m-2.5-.6L57.9 218m-3.1-.9L.7 205.9m139.1 26.8l-51.7-16.9m-5.3-1.7L.7 187.4m140 43l-24.8-11.5m-6.1-2.6L71 199.1m-5-2.6L37.1 184m-3.4-1.5l-33-14.9M142 227.7L57.9 179m-4.1-2.3l-37-21.6m-3.5-1.7L.7 146m142.9 79.4l-8.6-6.5m-3.7-2.6l-48.5-35.2m-3.1-2.1l-79-57.1m144.6 101.3L120 200.4m-2.8-2.6l-38.3-34.7m-3.1-2.5l-8.3-7.6m-3.7-3.3l-38-33.6m-3-2.5L4.1 96.2m143.3 125L133 205.9m-2.3-3.1L75.8 142m-5.8-6.3L43 106m-3-3.3L29.5 90.9m120 128.6l-27.7-37.6M120 179l-31.1-42m-3.1-5L53.4 88.3M151.8 218l-37.9-65m-2-4.1L91 109.1m63.3 107.6l-8-17.6m-1.5-3.5l-17.4-38.7m-.7-2.3l-16.3-36.1m46.8 97.2l-10.3-30.2m-1-3.2L127.2 124m-1.5-3.9l-2.7-8.3M159.9 215l-1.8-6.7m-.9-4L144 142m-.8-4.3l-7.4-32.8m26.4 109.8l-3.8-35.7m-.3-4.4l-8-77.4"/></symbol><symbol viewBox="0 0 24.3 17" id="uploads--test" xmlns="http://www.w3.org/2000/svg"><path d="M7.8 16.8H4.5v-.5c-.5.5-1.1.7-1.8.7C.9 17 0 16 0 14v-3.7c0-2.1 1.2-3.1 3.7-3.1h.8V1.9C4.5 1 4.2.6 3.6.6c-.7 0-1 .4-1 1.3v3.4H.1v-2c0-1 .3-1.8.9-2.4C1.6.3 2.5 0 3.5 0 4.6 0 5.4.3 6 .9c.6.6.9 1.4.9 2.4v13h.8v.5zm-5.9-.4c-.4-.4-.6-1-.6-1.7V9.8c0-.7.1-1.3.4-1.7-.7.4-1.1 1-1.1 2v4.2c0 1.2.4 1.9 1.3 2.1zM1.8 1C1.1 1.4.7 2.1.7 3v1.6h.6v-2c0-.7.2-1.2.5-1.6zm2.7 14.8v-8h-.8c-.8 0-1.2.4-1.2 1.3v6c0 .8.3 1.2.9 1.2.3 0 .7-.2 1.1-.5zm1.2.4V2.7c0-.9-.4-1.6-1.1-2 .3.3.5.8.5 1.5v14h.6zM15.8 5.3h-2.5V1.9c0-.8-.3-1.2-.8-1.2-.3 0-.7.2-1 .5v15h.8v.6H8.2v-.6H9V.7h-.8V.2h3.3v.5c.5-.5 1.1-.7 1.8-.7 1.7 0 2.5 1 2.5 2.9v2.4zm-5.5 10.9V.7h-.7v15.5h.7zm4.2-11.5V2.4c0-.9-.3-1.5-1-1.8.3.3.4.7.4 1.5v2.6h.6zm9.8 9c0 .9-.3 1.7-1 2.3-.7.6-1.5.9-2.6.9-1 0-1.9-.3-2.6-.9s-1-1.4-1-2.3V3.3c0-.9.3-1.7 1-2.3.7-.7 1.5-1 2.6-1 1 0 1.9.3 2.6.9.7.6 1 1.4 1 2.3v2h-2.5V1.9c0-.9-.4-1.3-1.1-1.3-.8 0-1.1.4-1.1 1.3v13.2c0 .9.4 1.3 1.1 1.3.7 0 1.1-.4 1.1-1.3v-3.4h2.5v2zm-5.6 2.2c-.3-.4-.4-.9-.4-1.6V2.7c0-.7.1-1.2.4-1.6-.7.5-1.1 1.2-1.1 2V14c.1.8.4 1.4 1.1 1.9zM23 4.7V2.8c0-.9-.4-1.6-1.2-2 .3.4.5.9.5 1.6v2.4h.7zm0 9.5v-1.9h-.6v2.4c0 .7-.2 1.2-.5 1.6.8-.5 1.1-1.2 1.1-2.1z"/></symbol></svg>