<svg xmlns="http://www.w3.org/2000/svg" viewBox="0 0 132.4 118.5"><path d="M132.4 0H89.8v1.8h12.4l-35 93.8L31.7 1.8h17.8V0H0v1.8h14.4l35.7 94.4c.4-.3.9-.6 1.3-.9 1.7-.8 3.7-.8 6 0 1 .4 1.9.9 2.4 1.5a4.72 4.72 0 0 1 1.5 3.6c0 .6-.1 1.1-.3 1.6-.3.8-.6 1.4-1.1 1.9-.4.5-.8 1-1.3 1.4-.4.5-.9 1-1.3 1.5s-.9 1.3-1.2 2.3c-.2.6-.4 1.2-.4 1.8l1 2.8 1 2.7c.3.1.5.2.8.3.1.1.3.1.4.2 3.2 1.2 6.1 1.7 8.8 1.5 2.6-.2 5-1 7.1-2.4 2.1-1.4 3.9-3.2 5.4-5.5 1.5-2.3 2.9-4.9 3.9-7.7l37.1-101h11.2V0zM70.3 108c-1.4 3.8-3 6.2-4.9 7.2-1.1.6-2.1.9-3.3.9L105 1.8h5.4L70.3 108z"/></svg>